<svg xmlns="http://www.w3.org/2000/svg" width="186.43" height="42.66" viewBox="0 0 186.43 42.66">
  <g id="Group_51080" transform="translate(-213.855 -83.156)">
    <path id="Path_48067" d="M256.573,120.757a1.236,1.236,0,0,1,.16.427c0,.106-.16.16-.478.16h-4a1.009,1.009,0,0,1-.693-.239c-.033-.03-.066-.061-.1-.091l-11.032-18.232h5.457a6.71,6.71,0,0,0,2.7-.771A8.226,8.226,0,0,0,250.8,100.3a8.081,8.081,0,0,0,1.521-2.372,7.122,7.122,0,0,0,.56-2.774,7.2,7.2,0,0,0-.587-2.825,8.384,8.384,0,0,0-1.573-2.453,7.549,7.549,0,0,0-2.347-1.709,6.612,6.612,0,0,0-2.853-.638H231.2l-2.647-4.374h17.015a10.936,10.936,0,0,1,4.531.959,12.028,12.028,0,0,1,3.718,2.589,12.509,12.509,0,0,1,2.535,3.812A11.412,11.412,0,0,1,257.3,95.1a11.294,11.294,0,0,1-.693,3.92,12.636,12.636,0,0,1-1.888,3.442,13.386,13.386,0,0,1-2.849,2.72,11.264,11.264,0,0,1-3.618,1.706Z" transform="translate(-11.875)" fill="#f1b80e"/>
    <path id="Path_48068" d="M260.023,196.923c0,.106-.16.161-.477.161h-4a1.007,1.007,0,0,1-.692-.24c-.035-.029-.067-.06-.1-.09l-15.068-25.367h5.356l11.513,19.6,3.309,5.514A1.231,1.231,0,0,1,260.023,196.923Z" transform="translate(-20.865 -71.269)" fill="#f1b80e"/>
    <path id="Path_48069" d="M227.556,215.03c0,.106-.16.161-.477.161h-4a1.007,1.007,0,0,1-.692-.24c-.035-.029-.067-.06-.1-.09L213.855,200.8h5.356l4.877,8.285L227.4,214.6A1.23,1.23,0,0,1,227.556,215.03Z" transform="translate(0 -95.03)" fill="#f1b80e"/>
    <g id="Group_51079" transform="translate(246.874 96.458)">
      <path id="Path_48070" d="M397.373,153.12h-2.3a.786.786,0,0,0-.732.513l-8.731,24.7H389l.741-1.954a11.724,11.724,0,0,0,12.962,0l.741,1.954h3.393L398.1,153.623A.783.783,0,0,0,397.373,153.12Zm4.279,20.289a9.345,9.345,0,0,1-1.938,1.146,9.1,9.1,0,0,1-3.493.69,8.948,8.948,0,0,1-3.483-.686,9.164,9.164,0,0,1-1.951-1.14l5.433-15.392Z" transform="translate(-385.606 -152.972)"/>
      <path id="Path_48071" d="M536.847,176.89l-9.63-23.126a1.023,1.023,0,0,0-.47-.592,1.386,1.386,0,0,0-.621-.118h-1.085a1.384,1.384,0,0,0-.623.119,1.16,1.16,0,0,0-.485.554l-2.824,6.821-2.815-6.8a1.075,1.075,0,0,0-.542-.611,1.642,1.642,0,0,0-.575-.081h-1.084a1.119,1.119,0,0,0-1.088.669l-9.612,23.117a1.039,1.039,0,0,0-.119.523c0,.445.278.921,1.057.921h1.729a1.162,1.162,0,0,0,.656-.182,1.41,1.41,0,0,0,.446-.53,6.15,6.15,0,0,0,.314-.718c.1-.273.243-.621.419-1.039l6.762-16.636c.34.874.682,1.74,1.024,2.585.47,1.167.958,2.354,1.45,3.532l-4.837,11.576-.012.032a1.469,1.469,0,0,0-.093.458c0,.445.278.921,1.057.921h1.729a1.168,1.168,0,0,0,1.13-.736c.086-.185.182-.419.285-.695s.243-.621.419-1.039l6.774-16.634,6.769,16.619c.323.878.549,1.455.692,1.764a1.2,1.2,0,0,0,1.148.72h1.729a.912.912,0,0,0,1.023-.921,1.472,1.472,0,0,0-.092-.456Z" transform="translate(-482.268 -152.918)"/>
      <path id="Path_48072" d="M701.626,174.476H687.136l14.7-18.4v-2a.932.932,0,0,0-.376-.817,1.229,1.229,0,0,0-.715-.2H683.12a1.055,1.055,0,0,0-.86.332,1.088,1.088,0,0,0-.2.664v1.715a1,1,0,0,0,1.057,1.1h13.458l-6.985,8.523c-.925,1.145-1.866,2.3-2.794,3.433q-1.372,1.675-2.457,2.994t-2.4,2.933a.748.748,0,0,0-.186.52v1.962a1.058,1.058,0,0,0,1.057,1.056h18.812a1.008,1.008,0,0,0,.783-.333,1.082,1.082,0,0,0,.274-.731v-1.681A.984.984,0,0,0,701.626,174.476Z" transform="translate(-624.823 -152.918)"/>
      <path id="Path_48073" d="M805.077,153.054h-1.742a1,1,0,0,0-.674.259.947.947,0,0,0-.309.73V177.3a.924.924,0,0,0,.983.989h1.742a.947.947,0,0,0,1.05-.989V154.077A.962.962,0,0,0,805.077,153.054Z" transform="translate(-722.234 -152.918)"/>
      <path id="Path_48074" d="M866.4,152.451h-1.681a.978.978,0,0,0-.7.292.964.964,0,0,0-.3.694l-.127,17.645-13.551-18.27a1.12,1.12,0,0,0-.927-.463h-2.338a.965.965,0,0,0-1.057,1.023v23.456a.884.884,0,0,0,.879.883h.04c.024,0,.049,0,.076,0l1.894,0h0a.885.885,0,0,0,.876-.788,1.18,1.18,0,0,0,.018-.205V158.37l14.315,19.345h2.438a.968.968,0,0,0,1.1-.986l.169-23.255a1.047,1.047,0,0,0-.259-.711A1.1,1.1,0,0,0,866.4,152.451Z" transform="translate(-757.265 -152.349)"/>
      <path id="Path_48075" d="M987.746,153.054H971.741a.925.925,0,0,0-1.016.955v23.252a.946.946,0,0,0,1.016,1.023h15.9a.984.984,0,0,0,1.057-1.064v-1.681a1.023,1.023,0,0,0-.327-.785,1.114,1.114,0,0,0-.763-.279H974.5v-3.682h10.4a.918.918,0,0,0,.762-.385,1.127,1.127,0,0,0,.227-.672v-1.729a.943.943,0,0,0-.989-1.023H974.5V156.862h13.213a.986.986,0,0,0,1.023-1.1v-1.715A.93.93,0,0,0,987.746,153.054Z" transform="translate(-858.237 -152.918)"/>
      <path id="Path_48076" d="M1096.563,176.707q-.236-.336-.724-1.06h0q-.492-.729-1.391-2.052t-2.288-3.356q-1.326-1.94-3.206-4.711l3.207-4.73q1.389-2.05,2.288-3.372c.614-.9,1.07-1.582,1.393-2.073s.567-.853.722-1.074a4.344,4.344,0,0,0,.309-.47.7.7,0,0,0,.083-.314.633.633,0,0,0-.718-.616H1093.8a1.559,1.559,0,0,0-1.232.734l-5.92,8.72-5.9-8.686a1.418,1.418,0,0,0-1.221-.768h-2.474a.633.633,0,0,0-.718.616.68.68,0,0,0,.082.311,3.953,3.953,0,0,0,.31.472q.236.337.724,1.061t1.389,2.067c.592.883,1.341,1.987,2.29,3.376.876,1.282,1.936,2.825,3.237,4.711-1.3,1.886-2.36,3.43-3.237,4.711-.916,1.341-1.687,2.477-2.29,3.376s-1.062,1.581-1.389,2.067-.567.836-.724,1.061a4.116,4.116,0,0,0-.307.466.693.693,0,0,0-.085.318.633.633,0,0,0,.718.616h2.474a1.535,1.535,0,0,0,1.2-.735l5.92-8.72,5.907,8.7.013.018a1.558,1.558,0,0,0,1.232.734h2.441a.633.633,0,0,0,.718-.616V177.4l-.035-.086A3.335,3.335,0,0,0,1096.563,176.707Z" transform="translate(-943.544 -152.776)"/>
    </g>
  </g>
</svg>
